<?xml version="1.0" encoding="UTF-8" standalone="no"?>
<!-- Creator: CorelDRAW X8 -->

<svg
   xmlns:dc="http://purl.org/dc/elements/1.1/"
   xmlns:cc="http://creativecommons.org/ns#"
   xmlns:rdf="http://www.w3.org/1999/02/22-rdf-syntax-ns#"
   xmlns:svg="http://www.w3.org/2000/svg"
   xmlns="http://www.w3.org/2000/svg"
   xmlns:sodipodi="http://sodipodi.sourceforge.net/DTD/sodipodi-0.dtd"
   xmlns:inkscape="http://www.inkscape.org/namespaces/inkscape"
   xml:space="preserve"
   width="174px"
   height="120px"
   version="1.1"
   style="shape-rendering:geometricPrecision; text-rendering:geometricPrecision; image-rendering:optimizeQuality; fill-rule:evenodd; clip-rule:evenodd"
   viewBox="0 0 174 120"
   id="svg2"
   inkscape:version="0.91 r13725"
   sodipodi:docname="leftlogo.svg"><metadata
     id="metadata73"><rdf:RDF><cc:Work
         rdf:about=""><dc:format>image/svg+xml</dc:format><dc:type
           rdf:resource="http://purl.org/dc/dcmitype/StillImage" /></cc:Work></rdf:RDF></metadata><sodipodi:namedview
     pagecolor="#ffffff"
     bordercolor="#666666"
     borderopacity="1"
     objecttolerance="10"
     gridtolerance="10"
     guidetolerance="10"
     inkscape:pageopacity="0"
     inkscape:pageshadow="2"
     inkscape:window-width="1858"
     inkscape:window-height="1057"
     id="namedview71"
     showgrid="false"
     inkscape:zoom="3.8591954"
     inkscape:cx="95.221102"
     inkscape:cy="10.865827"
     inkscape:window-x="54"
     inkscape:window-y="-8"
     inkscape:window-maximized="1"
     inkscape:current-layer="Слой_x0020_1" /><defs
     id="defs4"><style
       type="text/css"
       id="style6"><![CDATA[
    .str0 {stroke:#023F87;stroke-width:0.900012;stroke-linecap:round;stroke-linejoin:round}
    .fil1 {fill:none}
    .fil0 {fill:none;fill-rule:nonzero}
    .fil2 {fill:#023F87;fill-rule:nonzero}
   ]]></style></defs><g
     id="Слой_x0020_1"><metadata
       id="CorelCorpID_0Corel-Layer" /><g
       id="_1934144526272"
       style=""><path
         class="fil0 str0"
         d="M13 52c0,0 -3,-4 -6,-9 -2,-5 -2,-10 -2,-17 0,-8 1,-21 0,-21 -1,0 -1,6 -3,16 -2,11 -4,19 2,26 3,6 11,8 12,13 1,4 -1,11 -1,12 0,1 -1,7 -2,9 0,2 -3,3 -3,3"
         id="path11"
         style="" /><polyline
         class="fil0 str0"
         points="10,84 10,90 4,114 "
         id="polyline13"
         style="" /><path
         class="fil0 str0"
         d="M4 114c0,0 2,4 16,4 14,0 15,-4 15,-4"
         id="path15"
         style="" /><polyline
         class="fil0 str0"
         points="35,114 29,90 29,84 "
         id="polyline17"
         style="" /><path
         class="fil0 str0"
         d="M29 84c0,0 -2,0 -4,-3 -1,-2 -1,-7 -1,-11 0,-9 0,-12 3,-15 2,-3 12,-7 13,-21 1,-14 -11,-32 -11,-32 0,0 -4,14 -4,22 0,2 0,4 0,4"
         id="path19"
         style="" /><path
         class="fil0 str0"
         d="M5 28c0,0 4,-5 6,-6 1,-2 3,-6 3,-6 0,0 3,5 5,8 3,2 3,3 3,3"
         id="path21"
         style="" /><path
         class="fil0 str0"
         d="M7 38c0,-6 5,-12 12,-12 6,0 12,6 12,12 0,7 -6,12 -12,12 -7,0 -12,-5 -12,-12"
         id="path23"
         style="" /><path
         class="fil0 str0"
         d="M10 90c0,0 4,1 9,1 7,0 10,-1 10,-1"
         id="path25"
         style="" /><path
         class="fil0 str0"
         d="M29 84c0,0 -3,1 -9,1 -5,0 -10,-1 -10,-1"
         id="path27"
         style="" /><polyline
         class="fil0 str0"
         points="25,40 23,39 23,38 24,36 25,35 24,33 24,33 25,34 26,34 26,33 25,32 24,31 23,31 22,32 "
         id="polyline29"
         style="" /><path
         class="fil0 str0"
         d="M22 32c0,0 0,0 0,0 -1,0 -1,0 -1,1 0,0 -1,0 -1,0 0,0 -1,0 -1,0 0,0 0,0 -1,0 0,0 0,0 0,0 0,0 -1,-1 -1,0 0,0 0,0 -1,0 0,0 -1,0 -1,0 0,0 0,0 0,0 0,0 -1,1 -1,1"
         id="path31"
         style="" /><polyline
         class="fil0 str0"
         points="14,34 13,34 13,35 12,36 11,36 10,37 "
         id="polyline33"
         style="" /><path
         class="fil0 str0"
         d="M10 37c0,0 1,1 1,1 0,0 1,1 1,1"
         id="path35"
         style="" /><polyline
         class="fil0 str0"
         points="12,39 12,40 12,42 12,43 13,45 13,46 15,45 "
         id="polyline37"
         style="" /><path
         class="fil0 str0"
         d="M15 45c0,0 0,-1 0,-1 0,0 1,-2 1,-2"
         id="path39"
         style="" /><polyline
         class="fil0 str0"
         points="16,42 17,41 17,40 16,40 16,39 16,39 17,40 17,38 17,38 16,38 17,37 18,38 19,39 20,39 20,40 21,42 22,41 21,40 22,39 23,40 24,40 24,40 24,41 25,40 "
         id="polyline41"
         style="" /><polygon
         class="fil0 str0"
         points="14,35 15,36 15,36 14,36 13,35 "
         id="polygon43"
         style="" /><path
         class="fil0 str0"
         d="M8 113c0,0 4,2 12,2 7,0 11,-2 11,-2"
         id="path45"
         style="" /><line
         class="fil0 str0"
         x1="31"
         y1="113"
         x2="31"
         y2="109"
         id="line47"
         style="" /><path
         class="fil0 str0"
         d="M31 109c0,0 -4,2 -11,2 -7,0 -11,-2 -11,-2"
         id="path49"
         style="" /><line
         class="fil0 str0"
         x1="9"
         y1="109"
         x2="8"
         y2="113"
         id="line51"
         style="" /><line
         class="fil1 str0"
         x1="28"
         y1="43"
         x2="27"
         y2="43"
         id="line53"
         style="" /><path
         class="fil1 str0"
         d="M27 43c0,0 -2,0 -2,0 0,-1 -2,0 -2,0 0,0 -1,2 -1,2 0,0 1,1 1,1 1,1 1,1 1,1"
         id="path55"
         style="" /><polyline
         class="fil1 str0"
         points="24,47 25,46 26,46 27,46 "
         id="polyline57"
         style="" /><path
         class="fil1 str0"
         d="M27 46c0,0 0,-2 0,-2 0,0 1,-1 1,-1"
         id="path59"
         style="" /><line
         class="fil1 str0"
         x1="14"
         y1="28"
         x2="14"
         y2="29"
         id="line61"
         style="" /><path
         class="fil1 str0"
         d="M14 29c0,0 1,0 1,0 0,0 1,0 1,0 0,0 0,0 0,0 0,1 1,1 1,1 0,0 1,-1 1,-1 0,0 1,0 1,0 0,1 1,1 1,1 0,0 0,-1 0,-1 0,0 1,0 1,0 0,0 1,-1 1,-1"
         id="path63"
         style="" /><line
         class="fil1 str0"
         x1="22"
         y1="28"
         x2="23"
         y2="28"
         id="line65"
         style="" /><path
         class="fil1 str0"
         d="M23 28c0,0 -3,-2 -6,-2 -3,1 -3,2 -3,2"
         id="path67"
         style="" /></g><g
       style="font-style:normal;font-weight:normal;font-size:21.70258141px;line-height:98.00000191%;font-family:sans-serif;letter-spacing:0px;word-spacing:0px;fill:#023f87;fill-opacity:0.94117647;stroke:none;stroke-width:1px;stroke-linecap:butt;stroke-linejoin:miter;stroke-opacity:1"
       id="text4201"
       transform="translate(8,-2)"><path
         d="m 59.382279,34.015588 q 0,1.909827 -0.868103,2.908146 -0.846401,0.976616 -2.582607,0.976616 -1.736207,0 -2.582608,-0.933211 -0.824698,-0.933211 -0.824698,-2.60431 l 0,-7.943144 q 0,-0.802996 0.173621,-1.519181 0.173621,-0.716185 0.564267,-1.237047 0.412349,-0.542565 1.063427,-0.846401 0.67278,-0.303836 1.627693,-0.303836 0.976616,0 1.627694,0.282134 0.67278,0.260431 1.063426,0.781293 0.390647,0.499159 0.564267,1.215344 0.173621,0.694483 0.173621,1.562586 l 0,7.661011 z m -1.34556,-7.856334 q 0,-0.477457 -0.108513,-0.911509 -0.108513,-0.434051 -0.347241,-0.75959 -0.238729,-0.347241 -0.651078,-0.542565 -0.390646,-0.217025 -0.976616,-0.217025 -0.629375,0 -1.041724,0.282133 -0.412349,0.260431 -0.651077,0.67278 -0.238729,0.412349 -0.347242,0.911509 -0.08681,0.477456 -0.08681,0.911508 l 0,7.878037 q 0,0.434052 0.108513,0.846401 0.130216,0.412349 0.368944,0.737887 0.260431,0.325539 0.651077,0.520862 0.412349,0.195324 0.976617,0.195324 1.150236,0 1.627693,-0.737888 0.477457,-0.737888 0.477457,-1.779612 l 0,-8.008252 z"
         style="font-style:normal;font-variant:normal;font-weight:300;font-stretch:normal;line-height:99.00000095%;font-family:'PF Din Text Comp Pro';-inkscape-font-specification:'PF Din Text Comp Pro Light';fill:#023f87;fill-opacity:0.94117647"
         id="path4171"
         inkscape:connector-curvature="0" /><path
         d="m 62.728885,36.46798 1.584288,0 q 0.824698,0 1.323857,-0.238729 0.520862,-0.260431 0.802996,-0.67278 0.303836,-0.434051 0.390646,-0.998318 0.108513,-0.58597 0.108513,-1.25875 0,-0.67278 -0.130215,-1.215345 -0.108513,-0.564267 -0.412349,-0.954913 -0.303836,-0.412349 -0.824698,-0.629375 -0.49916,-0.217026 -1.302155,-0.217026 l -1.540883,0 0,6.185236 z m 0,-7.443986 1.605991,0 q 1.171939,0 1.931529,0.325539 0.781293,0.303836 1.215345,0.868103 0.434052,0.564268 0.607672,1.34556 0.173621,0.781293 0.173621,1.714504 0,0.998319 -0.173621,1.823017 -0.17362,0.824698 -0.607672,1.410668 -0.434052,0.58597 -1.17194,0.911508 -0.737887,0.325539 -1.888124,0.325539 l -3.016659,0 0,-15.104996 6.011615,0 0,1.237047 -4.687757,0 0,5.143511 z"
         style="font-style:normal;font-variant:normal;font-weight:300;font-stretch:normal;line-height:99.00000095%;font-family:'PF Din Text Comp Pro';-inkscape-font-specification:'PF Din Text Comp Pro Light';fill:#023f87;fill-opacity:0.94117647"
         id="path4173"
         inkscape:connector-curvature="0" /><path
         d="m 72.031153,30.239339 q 0,2.040043 -0.130215,3.3639 -0.108513,1.323858 -0.390647,2.191961 -0.282133,0.868103 -0.781293,1.410668 -0.477456,0.520862 -1.193642,0.954913 l -0.607672,-0.976616 q 0.455754,-0.325539 0.802996,-0.694483 0.347241,-0.390646 0.585969,-1.041723 0.260431,-0.651078 0.368944,-1.692802 0.130216,-1.041724 0.130216,-2.69112 l 0,-8.420601 6.22864,0 0,15.104996 -1.323857,0 0,-13.867949 -3.689439,0 0,6.358856 z"
         style="font-style:normal;font-variant:normal;font-weight:300;font-stretch:normal;line-height:99.00000095%;font-family:'PF Din Text Comp Pro';-inkscape-font-specification:'PF Din Text Comp Pro Light';fill:#023f87;fill-opacity:0.94117647"
         id="path4175"
         inkscape:connector-curvature="0" /><path
         d="m 85.024218,37.748432 -0.802995,-3.646034 -3.754547,0 -0.781293,3.646034 -1.258749,0 3.255387,-15.104996 1.34556,0 3.320495,15.104996 -1.323858,0 z m -2.712822,-12.891333 -0.716186,3.646033 -0.911508,4.340517 3.298792,0 -0.911508,-4.383922 -0.694483,-3.602628 -0.06511,0 z"
         style="font-style:normal;font-variant:normal;font-weight:300;font-stretch:normal;line-height:99.00000095%;font-family:'PF Din Text Comp Pro';-inkscape-font-specification:'PF Din Text Comp Pro Light';fill:#023f87;fill-opacity:0.94117647"
         id="path4177"
         inkscape:connector-curvature="0" /><path
         d="m 87.83945,40.613173 -1.193642,0 0,-3.993275 0.759591,-0.08681 q 0.325539,-0.325539 0.564267,-0.694483 0.238728,-0.390646 0.368944,-0.976616 0.151918,-0.58597 0.217026,-1.432371 0.08681,-0.868103 0.130215,-2.126853 l 0.217026,-8.659329 6.467369,0 0,13.933057 0.802996,0 0,4.03668 -1.193642,0 0,-2.864741 -7.14015,0 0,2.864741 z m 6.206939,-4.03668 0,-12.739416 -3.928168,0 -0.195323,7.465688 q -0.04341,1.866422 -0.238728,3.125172 -0.195323,1.25875 -0.737888,2.148556 l 5.100107,0 z"
         style="font-style:normal;font-variant:normal;font-weight:300;font-stretch:normal;line-height:99.00000095%;font-family:'PF Din Text Comp Pro';-inkscape-font-specification:'PF Din Text Comp Pro Light';fill:#023f87;fill-opacity:0.94117647"
         id="path4179"
         inkscape:connector-curvature="0" /><path
         d="m 103.37816,37.748432 -0.803,-3.646034 -3.754545,0 -0.781293,3.646034 -1.258749,0 3.255387,-15.104996 1.34556,0 3.32049,15.104996 -1.32385,0 z m -2.71283,-12.891333 -0.716181,3.646033 -0.911508,4.340517 3.298789,0 -0.91151,-4.383922 -0.69448,-3.602628 -0.0651,0 z"
         style="font-style:normal;font-variant:normal;font-weight:300;font-stretch:normal;line-height:99.00000095%;font-family:'PF Din Text Comp Pro';-inkscape-font-specification:'PF Din Text Comp Pro Light';fill:#023f87;fill-opacity:0.94117647"
         id="path4181"
         inkscape:connector-curvature="0" /><path
         d="m 108.42231,23.85878 0,13.889652 -1.36726,0 0,-13.889652 -2.71282,0 0,-1.215344 6.7929,0 0,1.215344 -2.71282,0 z"
         style="font-style:normal;font-variant:normal;font-weight:300;font-stretch:normal;line-height:99.00000095%;font-family:'PF Din Text Comp Pro';-inkscape-font-specification:'PF Din Text Comp Pro Light';fill:#023f87;fill-opacity:0.94117647"
         id="path4183"
         inkscape:connector-curvature="0" /><path
         d="m 112.37897,37.748432 0,-15.104996 6.31545,0 0,1.237047 -4.9916,0 0,5.534158 4.36222,0 0,1.237047 -4.36222,0 0,5.8814 4.9916,0 0,1.215344 -6.31545,0 z"
         style="font-style:normal;font-variant:normal;font-weight:300;font-stretch:normal;line-height:99.00000095%;font-family:'PF Din Text Comp Pro';-inkscape-font-specification:'PF Din Text Comp Pro Light';fill:#023f87;fill-opacity:0.94117647"
         id="path4185"
         inkscape:connector-curvature="0" /><path
         d="m 122.26076,30.239339 q 0,2.040043 -0.13022,3.3639 -0.10851,1.323858 -0.39064,2.191961 -0.28214,0.868103 -0.7813,1.410668 -0.47745,0.520862 -1.19364,0.954913 l -0.60767,-0.976616 q 0.45575,-0.325539 0.803,-0.694483 0.34724,-0.390646 0.58597,-1.041723 0.26043,-0.651078 0.36894,-1.692802 0.13022,-1.041724 0.13022,-2.69112 l 0,-8.420601 6.22864,0 0,15.104996 -1.32386,0 0,-13.867949 -3.68944,0 0,6.358856 z"
         style="font-style:normal;font-variant:normal;font-weight:300;font-stretch:normal;line-height:99.00000095%;font-family:'PF Din Text Comp Pro';-inkscape-font-specification:'PF Din Text Comp Pro Light';fill:#023f87;fill-opacity:0.94117647"
         id="path4187"
         inkscape:connector-curvature="0" /><path
         d="m 129.43754,37.748432 0,-15.104996 1.32385,0 0,6.380558 1.58429,0 q 1.17194,0 1.93153,0.325539 0.7813,0.303836 1.21535,0.868103 0.43405,0.564268 0.60767,1.34556 0.17362,0.781293 0.17362,1.714504 0,0.998319 -0.17362,1.823017 -0.17362,0.824698 -0.60767,1.410668 -0.41235,0.58597 -1.17194,0.911508 -0.73789,0.325539 -1.86642,0.325539 l -3.01666,0 z m 1.32385,-1.25875 1.56259,0 q 0.8247,0 1.34556,-0.238728 0.52086,-0.260431 0.803,-0.67278 0.30383,-0.434052 0.39064,-1.020021 0.10852,-0.58597 0.10852,-1.237047 0,-0.67278 -0.13022,-1.237048 -0.10851,-0.564267 -0.41235,-0.954913 -0.30384,-0.412349 -0.8247,-0.629375 -0.52086,-0.217026 -1.32385,-0.217026 l -1.51919,0 0,6.206938 z"
         style="font-style:normal;font-variant:normal;font-weight:300;font-stretch:normal;line-height:99.00000095%;font-family:'PF Din Text Comp Pro';-inkscape-font-specification:'PF Din Text Comp Pro Light';fill:#023f87;fill-opacity:0.94117647"
         id="path4189"
         inkscape:connector-curvature="0" /><path
         d="m 58.123529,59.233988 0,-7.140149 -4.145193,0 0,7.140149 -1.323857,0 0,-15.104997 1.323857,0 0,6.792908 4.145193,0 0,-6.792908 1.34556,0 0,15.104997 -1.34556,0 z"
         style="font-style:normal;font-variant:normal;font-weight:300;font-stretch:normal;line-height:99.00000095%;font-family:'PF Din Text Comp Pro';-inkscape-font-specification:'PF Din Text Comp Pro Light';fill:#023f87;fill-opacity:0.94117647"
         id="path4191"
         inkscape:connector-curvature="0" /><path
         d="m 67.433259,59.233988 -0.802996,-3.646034 -3.754546,0 -0.781293,3.646034 -1.25875,0 3.255387,-15.104997 1.34556,0 3.320495,15.104997 -1.323857,0 z m -2.712823,-12.891333 -0.716185,3.646033 -0.911509,4.340517 3.298793,0 -0.911509,-4.383922 -0.694482,-3.602628 -0.06511,0 z"
         style="font-style:normal;font-variant:normal;font-weight:300;font-stretch:normal;line-height:99.00000095%;font-family:'PF Din Text Comp Pro';-inkscape-font-specification:'PF Din Text Comp Pro Light';fill:#023f87;fill-opacity:0.94117647"
         id="path4193"
         inkscape:connector-curvature="0" /><path
         d="m 76.867778,44.128991 0,13.846247 0.759591,0 0,4.101788 -1.193642,0 0,-2.843038 -6.315452,0 0,-15.104997 1.323858,0 0,13.846247 4.080085,0 0,-13.846247 1.34556,0 z"
         style="font-style:normal;font-variant:normal;font-weight:300;font-stretch:normal;line-height:99.00000095%;font-family:'PF Din Text Comp Pro';-inkscape-font-specification:'PF Din Text Comp Pro Light';fill:#023f87;fill-opacity:0.94117647"
         id="path4195"
         inkscape:connector-curvature="0" /><path
         d="m 84.831948,47.362676 -4.44903,11.871312 -1.237047,0 0,-15.104997 1.302155,0 0,11.893015 0.08681,0.0217 4.405624,-11.914717 1.280453,0 0,15.104997 -1.323858,0 0,-11.871312 -0.06511,0 z"
         style="font-style:normal;font-variant:normal;font-weight:300;font-stretch:normal;line-height:99.00000095%;font-family:'PF Din Text Comp Pro';-inkscape-font-specification:'PF Din Text Comp Pro Light';fill:#023f87;fill-opacity:0.94117647"
         id="path4197"
         inkscape:connector-curvature="0" /><path
         d="m 95.200017,55.501144 q 0,1.909827 -0.868104,2.908146 -0.8464,0.976616 -2.582607,0.976616 -1.736206,0 -2.582607,-0.933211 -0.824698,-0.933211 -0.824698,-2.60431 l 0,-7.943145 q 0,-0.802995 0.173621,-1.51918 0.17362,-0.716185 0.564267,-1.237047 0.412349,-0.542565 1.063426,-0.846401 0.67278,-0.303836 1.627694,-0.303836 0.976616,0 1.627693,0.282133 0.67278,0.260431 1.063427,0.781293 0.390646,0.49916 0.564267,1.215345 0.173621,0.694482 0.173621,1.562586 l 0,7.661011 z m -1.34556,-7.856335 q 0,-0.477456 -0.108513,-0.911508 -0.108513,-0.434052 -0.347242,-0.75959 -0.238728,-0.347242 -0.651077,-0.542565 -0.390647,-0.217026 -0.976616,-0.217026 -0.629375,0 -1.041724,0.282134 -0.412349,0.260431 -0.651078,0.67278 -0.238728,0.412349 -0.347241,0.911508 -0.08681,0.477457 -0.08681,0.911509 l 0,7.878037 q 0,0.434051 0.108513,0.846401 0.130215,0.412349 0.368944,0.737887 0.260431,0.325539 0.651077,0.520862 0.412349,0.195323 0.976616,0.195323 1.150237,0 1.627694,-0.737887 0.477457,-0.737888 0.477457,-1.779612 l 0,-8.008253 z"
         style="font-style:normal;font-variant:normal;font-weight:300;font-stretch:normal;line-height:99.00000095%;font-family:'PF Din Text Comp Pro';-inkscape-font-specification:'PF Din Text Comp Pro Light';fill:#023f87;fill-opacity:0.94117647"
         id="path4199"
         inkscape:connector-curvature="0" /><path
         d="m 102.80033,59.233988 0,-7.140149 -4.145194,0 0,7.140149 -1.323857,0 0,-15.104997 1.323857,0 0,6.792908 4.145194,0 0,-6.792908 1.34556,0 0,15.104997 -1.34556,0 z"
         style="font-style:normal;font-variant:normal;font-weight:300;font-stretch:normal;line-height:99.00000095%;font-family:'PF Din Text Comp Pro';-inkscape-font-specification:'PF Din Text Comp Pro Light';fill:#023f87;fill-opacity:0.94117647"
         id="path4201"
         inkscape:connector-curvature="0" /><path
         d="m 112.11006,59.233988 -0.803,-3.646034 -3.75455,0 -0.78129,3.646034 -1.25875,0 3.25539,-15.104997 1.34556,0 3.32049,15.104997 -1.32385,0 z m -2.71283,-12.891333 -0.71618,3.646033 -0.91151,4.340517 3.29879,0 -0.91151,-4.383922 -0.69448,-3.602628 -0.0651,0 z"
         style="font-style:normal;font-variant:normal;font-weight:300;font-stretch:normal;line-height:99.00000095%;font-family:'PF Din Text Comp Pro';-inkscape-font-specification:'PF Din Text Comp Pro Light';fill:#023f87;fill-opacity:0.94117647"
         id="path4203"
         inkscape:connector-curvature="0" /><path
         d="m 116.83512,51.724895 q 0,2.040042 -0.13022,3.3639 -0.10851,1.323857 -0.39065,2.191961 -0.28213,0.868103 -0.78129,1.410667 -0.47746,0.520862 -1.19364,0.954914 l -0.60767,-0.976616 q 0.45575,-0.325539 0.80299,-0.694483 0.34724,-0.390646 0.58597,-1.041724 0.26043,-0.651077 0.36895,-1.692801 0.13021,-1.041724 0.13021,-2.69112 l 0,-8.420602 6.22864,0 0,15.104997 -1.32386,0 0,-13.86795 -3.68943,0 0,6.358857 z"
         style="font-style:normal;font-variant:normal;font-weight:300;font-stretch:normal;line-height:99.00000095%;font-family:'PF Din Text Comp Pro';-inkscape-font-specification:'PF Din Text Comp Pro Light';fill:#023f87;fill-opacity:0.94117647"
         id="path4205"
         inkscape:connector-curvature="0" /><path
         d="m 124.01189,59.233988 0,-15.104997 1.32386,0 0,6.380559 1.58429,0 q 1.17194,0 1.93153,0.325539 0.78129,0.303836 1.21534,0.868103 0.43405,0.564267 0.60768,1.34556 0.17362,0.781293 0.17362,1.714504 0,0.998319 -0.17362,1.823017 -0.17363,0.824698 -0.60768,1.410668 -0.41235,0.58597 -1.17194,0.911508 -0.73788,0.325539 -1.86642,0.325539 l -3.01666,0 z m 1.32386,-1.25875 1.56259,0 q 0.82469,0 1.34556,-0.238728 0.52086,-0.260431 0.80299,-0.67278 0.30384,-0.434052 0.39065,-1.020022 0.10851,-0.585969 0.10851,-1.237047 0,-0.67278 -0.13021,-1.237047 -0.10852,-0.564267 -0.41235,-0.954913 -0.30384,-0.412349 -0.8247,-0.629375 -0.52086,-0.217026 -1.32386,-0.217026 l -1.51918,0 0,6.206938 z"
         style="font-style:normal;font-variant:normal;font-weight:300;font-stretch:normal;line-height:99.00000095%;font-family:'PF Din Text Comp Pro';-inkscape-font-specification:'PF Din Text Comp Pro Light';fill:#023f87;fill-opacity:0.94117647"
         id="path4207"
         inkscape:connector-curvature="0" /><path
         d="m 138.06703,59.233988 0,-7.140149 -4.1452,0 0,7.140149 -1.32385,0 0,-15.104997 1.32385,0 0,6.792908 4.1452,0 0,-6.792908 1.34556,0 0,15.104997 -1.34556,0 z"
         style="font-style:normal;font-variant:normal;font-weight:300;font-stretch:normal;line-height:99.00000095%;font-family:'PF Din Text Comp Pro';-inkscape-font-specification:'PF Din Text Comp Pro Light';fill:#023f87;fill-opacity:0.94117647"
         id="path4209"
         inkscape:connector-curvature="0" /><path
         d="m 148.39677,55.501144 q 0,1.909827 -0.8681,2.908146 -0.8464,0.976616 -2.58261,0.976616 -1.7362,0 -2.5826,-0.933211 -0.8247,-0.933211 -0.8247,-2.60431 l 0,-7.943145 q 0,-0.802995 0.17362,-1.51918 0.17362,-0.716185 0.56427,-1.237047 0.41235,-0.542565 1.06342,-0.846401 0.67278,-0.303836 1.6277,-0.303836 0.97661,0 1.62769,0.282133 0.67278,0.260431 1.06343,0.781293 0.39064,0.49916 0.56426,1.215345 0.17362,0.694482 0.17362,1.562586 l 0,7.661011 z m -1.34556,-7.856335 q 0,-0.477456 -0.10851,-0.911508 -0.10851,-0.434052 -0.34724,-0.75959 -0.23873,-0.347242 -0.65108,-0.542565 -0.39064,-0.217026 -0.97661,-0.217026 -0.62938,0 -1.04173,0.282134 -0.41235,0.260431 -0.65107,0.67278 -0.23873,0.412349 -0.34725,0.911508 -0.0868,0.477457 -0.0868,0.911509 l 0,7.878037 q 0,0.434051 0.10852,0.846401 0.13021,0.412349 0.36894,0.737887 0.26043,0.325539 0.65108,0.520862 0.41235,0.195323 0.97661,0.195323 1.15024,0 1.6277,-0.737887 0.47745,-0.737888 0.47745,-1.779612 l 0,-8.008253 z"
         style="font-style:normal;font-variant:normal;font-weight:300;font-stretch:normal;line-height:99.00000095%;font-family:'PF Din Text Comp Pro';-inkscape-font-specification:'PF Din Text Comp Pro Light';fill:#023f87;fill-opacity:0.94117647"
         id="path4211"
         inkscape:connector-curvature="0" /><path
         d="m 152.22084,41.199143 q 0.0868,0.564267 0.52086,1.041724 0.45575,0.477457 1.10683,0.477457 0.69448,0 1.12854,-0.455755 0.45575,-0.455754 0.52086,-1.063426 l 1.08513,0 q -0.0434,0.412349 -0.21703,0.868103 -0.17362,0.434052 -0.52086,0.824698 -0.32554,0.368944 -0.8247,0.607672 -0.49916,0.238729 -1.17194,0.238729 -0.71618,0 -1.23705,-0.238729 -0.49915,-0.238728 -0.82469,-0.607672 -0.32554,-0.390646 -0.49916,-0.824698 -0.15192,-0.455754 -0.17362,-0.868103 l 1.10683,0 z m 3.94987,6.163533 -4.44903,11.871312 -1.23705,0 0,-15.104997 1.30216,0 0,11.893015 0.0868,0.0217 4.40562,-11.914717 1.28045,0 0,15.104997 -1.32385,0 0,-11.871312 -0.0651,0 z"
         style="font-style:normal;font-variant:normal;font-weight:300;font-stretch:normal;line-height:99.00000095%;font-family:'PF Din Text Comp Pro';-inkscape-font-specification:'PF Din Text Comp Pro Light';fill:#023f87;fill-opacity:0.94117647"
         id="path4213"
         inkscape:connector-curvature="0" /><path
         d="m 53.305556,77.724588 q 0.108513,1.020021 0.629375,1.497478 0.542565,0.455754 1.367263,0.455754 0.585969,0 0.954913,-0.217026 0.390647,-0.217026 0.629375,-0.564267 0.238729,-0.368944 0.325539,-0.824698 0.108513,-0.455754 0.108513,-0.954914 l 0,-3.472413 -3.646034,0 0,-1.302155 3.646034,0 0,-3.255387 q 0,-2.365581 -2.01834,-2.365581 -0.846401,0 -1.388966,0.520862 -0.542564,0.520862 -0.651077,1.475775 L 51.959996,68.41418 q 0.173621,-1.410668 1.063427,-2.170258 0.889805,-0.75959 2.365581,-0.75959 0.911508,0 1.540883,0.282133 0.629375,0.282134 0.998319,0.781293 0.390647,0.499159 0.564267,1.193642 0.173621,0.694483 0.173621,1.519181 l 0,7.899739 q 0,1.909828 -0.868103,2.821336 -0.868104,0.889806 -2.539202,0.889806 -1.388966,0 -2.257069,-0.716185 -0.868103,-0.716186 -1.041724,-2.148556 l 1.34556,-0.282133 z"
         style="font-style:normal;font-variant:normal;font-weight:300;font-stretch:normal;line-height:99.00000095%;font-family:'PF Din Text Comp Pro';-inkscape-font-specification:'PF Din Text Comp Pro Light';fill:#023f87;fill-opacity:0.94117647"
         id="path4215"
         inkscape:connector-curvature="0" /><path
         d="m 60.962498,80.719544 0,-15.104997 1.302155,0 0,6.706098 1.215345,0 q 0.347241,0 0.716185,-0.06511 0.390646,-0.08681 0.737888,-0.325539 0.368944,-0.260431 0.651077,-0.694482 0.303836,-0.455755 0.477457,-1.193642 l 1.063427,-4.427327 1.215344,0 -0.976616,4.383922 q -0.260431,1.106831 -0.75959,1.866422 -0.477457,0.75959 -1.193642,0.998318 0.933211,0.260431 1.388965,1.041724 0.477457,0.781293 0.716185,1.909827 l 1.085129,4.904784 -1.34556,0 -1.020021,-4.731163 q -0.173621,-0.75959 -0.455755,-1.215345 -0.260431,-0.477456 -0.607672,-0.737887 -0.325539,-0.260431 -0.737888,-0.347242 -0.390646,-0.08681 -0.802995,-0.08681 l -1.367263,0 0,7.118447 -1.302155,0 z"
         style="font-style:normal;font-variant:normal;font-weight:300;font-stretch:normal;line-height:99.00000095%;font-family:'PF Din Text Comp Pro';-inkscape-font-specification:'PF Din Text Comp Pro Light';fill:#023f87;fill-opacity:0.94117647"
         id="path4217"
         inkscape:connector-curvature="0" /><path
         d="m 76.676524,76.9867 q 0,1.909827 -0.868103,2.908146 -0.846401,0.976616 -2.582608,0.976616 -1.736206,0 -2.582607,-0.933211 -0.824698,-0.933211 -0.824698,-2.60431 l 0,-7.943145 q 0,-0.802995 0.173621,-1.51918 0.17362,-0.716186 0.564267,-1.237048 0.412349,-0.542564 1.063426,-0.8464 0.67278,-0.303836 1.627694,-0.303836 0.976616,0 1.627694,0.282133 0.67278,0.260431 1.063426,0.781293 0.390646,0.499159 0.564267,1.215345 0.173621,0.694482 0.173621,1.562586 l 0,7.661011 z m -1.34556,-7.856335 q 0,-0.477457 -0.108513,-0.911508 -0.108513,-0.434052 -0.347241,-0.75959 -0.238729,-0.347242 -0.651078,-0.542565 -0.390646,-0.217026 -0.976616,-0.217026 -0.629375,0 -1.041724,0.282134 -0.412349,0.260431 -0.651077,0.67278 -0.238729,0.412349 -0.347242,0.911508 -0.08681,0.477457 -0.08681,0.911509 l 0,7.878037 q 0,0.434051 0.108513,0.8464 0.130215,0.412349 0.368944,0.737888 0.260431,0.325539 0.651077,0.520862 0.412349,0.195323 0.976616,0.195323 1.150237,0 1.627694,-0.737888 0.477457,-0.737887 0.477457,-1.779611 l 0,-8.008253 z"
         style="font-style:normal;font-variant:normal;font-weight:300;font-stretch:normal;line-height:99.00000095%;font-family:'PF Din Text Comp Pro';-inkscape-font-specification:'PF Din Text Comp Pro Light';fill:#023f87;fill-opacity:0.94117647"
         id="path4219"
         inkscape:connector-curvature="0" /><path
         d="m 80.847826,73.210451 q 0,2.040042 -0.130215,3.3639 -0.108513,1.323857 -0.390646,2.19196 -0.282134,0.868104 -0.781293,1.410668 -0.477457,0.520862 -1.193642,0.954914 l -0.607673,-0.976616 q 0.455755,-0.325539 0.802996,-0.694483 0.347241,-0.390646 0.58597,-1.041724 0.260431,-0.651077 0.368943,-1.692801 0.130216,-1.041724 0.130216,-2.69112 l 0,-8.420602 6.228641,0 0,15.104997 -1.323858,0 0,-13.86795 -3.689439,0 0,6.358857 z"
         style="font-style:normal;font-variant:normal;font-weight:300;font-stretch:normal;line-height:99.00000095%;font-family:'PF Din Text Comp Pro';-inkscape-font-specification:'PF Din Text Comp Pro Light';fill:#023f87;fill-opacity:0.94117647"
         id="path4221"
         inkscape:connector-curvature="0" /><path
         d="m 94.860913,76.9867 q 0,1.909827 -0.868103,2.908146 -0.846401,0.976616 -2.582608,0.976616 -1.736206,0 -2.582607,-0.933211 -0.824698,-0.933211 -0.824698,-2.60431 l 0,-7.943145 q 0,-0.802995 0.173621,-1.51918 0.17362,-0.716186 0.564267,-1.237048 0.412349,-0.542564 1.063426,-0.8464 0.67278,-0.303836 1.627694,-0.303836 0.976616,0 1.627694,0.282133 0.67278,0.260431 1.063426,0.781293 0.390647,0.499159 0.564267,1.215345 0.173621,0.694482 0.173621,1.562586 l 0,7.661011 z m -1.34556,-7.856335 q 0,-0.477457 -0.108513,-0.911508 -0.108513,-0.434052 -0.347241,-0.75959 -0.238729,-0.347242 -0.651078,-0.542565 -0.390646,-0.217026 -0.976616,-0.217026 -0.629375,0 -1.041724,0.282134 -0.412349,0.260431 -0.651077,0.67278 -0.238729,0.412349 -0.347242,0.911508 -0.08681,0.477457 -0.08681,0.911509 l 0,7.878037 q 0,0.434051 0.108513,0.8464 0.130215,0.412349 0.368944,0.737888 0.260431,0.325539 0.651077,0.520862 0.412349,0.195323 0.976616,0.195323 1.150237,0 1.627694,-0.737888 0.477457,-0.737887 0.477457,-1.779611 l 0,-8.008253 z"
         style="font-style:normal;font-variant:normal;font-weight:300;font-stretch:normal;line-height:99.00000095%;font-family:'PF Din Text Comp Pro';-inkscape-font-specification:'PF Din Text Comp Pro Light';fill:#023f87;fill-opacity:0.94117647"
         id="path4223"
         inkscape:connector-curvature="0" /><path
         d="m 98.316032,66.851594 0,13.86795 -1.323857,0 0,-15.104997 6.076725,0 0,1.237047 -4.752868,0 z"
         style="font-style:normal;font-variant:normal;font-weight:300;font-stretch:normal;line-height:99.00000095%;font-family:'PF Din Text Comp Pro';-inkscape-font-specification:'PF Din Text Comp Pro Light';fill:#023f87;fill-opacity:0.94117647"
         id="path4225"
         inkscape:connector-curvature="0" /><path
         d="m 110.30705,68.848232 -4.44903,11.871312 -1.23705,0 0,-15.104997 1.30215,0 0,11.893015 0.0868,0.0217 4.40563,-11.914717 1.28045,0 0,15.104997 -1.32386,0 0,-11.871312 -0.0651,0 z"
         style="font-style:normal;font-variant:normal;font-weight:300;font-stretch:normal;line-height:99.00000095%;font-family:'PF Din Text Comp Pro';-inkscape-font-specification:'PF Din Text Comp Pro Light';fill:#023f87;fill-opacity:0.94117647"
         id="path4227"
         inkscape:connector-curvature="0" /><path
         d="m 114.83712,65.614547 0,5.29543 q 0,1.34556 0.56427,1.866422 0.56426,0.520862 1.82301,0.520862 0.34725,0 0.8464,-0.08681 0.49916,-0.08681 0.93322,-0.260431 l 0,-7.335473 1.34556,0 0,15.104997 -1.34556,0 0,-6.706098 q -0.43406,0.173621 -1.02003,0.260431 -0.58597,0.08681 -1.06342,0.08681 -0.7813,0 -1.41067,-0.17362 -0.60767,-0.173621 -1.04172,-0.564267 -0.43406,-0.412349 -0.67278,-1.063427 -0.23873,-0.67278 -0.23873,-1.627693 l 0,-5.317133 1.28045,0 z"
         style="font-style:normal;font-variant:normal;font-weight:300;font-stretch:normal;line-height:99.00000095%;font-family:'PF Din Text Comp Pro';-inkscape-font-specification:'PF Din Text Comp Pro Light';fill:#023f87;fill-opacity:0.94117647"
         id="path4229"
         inkscape:connector-curvature="0" /><path
         d="m 122.55205,80.719544 0,-15.104997 6.31545,0 0,1.237047 -4.9916,0 0,5.534158 4.36222,0 0,1.237048 -4.36222,0 0,5.881399 4.9916,0 0,1.215345 -6.31545,0 z"
         style="font-style:normal;font-variant:normal;font-weight:300;font-stretch:normal;line-height:99.00000095%;font-family:'PF Din Text Comp Pro';-inkscape-font-specification:'PF Din Text Comp Pro Light';fill:#023f87;fill-opacity:0.94117647"
         id="path4231"
         inkscape:connector-curvature="0" /><path
         d="m 133.62749,65.484332 q 1.58429,0 2.45239,0.889805 0.8681,0.868104 0.8681,2.452392 l -1.34556,0.260431 q 0.0217,-1.171939 -0.49915,-1.757909 -0.52087,-0.607672 -1.49748,-0.607672 -0.56427,0 -0.95492,0.217026 -0.36894,0.217025 -0.60767,0.585969 -0.23873,0.347242 -0.34724,0.802996 -0.10851,0.455754 -0.10851,0.933211 l 0,8.051657 q 0,0.434052 0.10851,0.868104 0.10851,0.412349 0.34724,0.737887 0.23873,0.325539 0.60767,0.520862 0.39065,0.195324 0.95492,0.195324 0.8898,0 1.43237,-0.542565 0.54256,-0.564267 0.56426,-1.823017 l 1.36727,0.238729 q -0.0434,1.671098 -0.95492,2.517499 -0.8898,0.846401 -2.38728,0.846401 -1.6494,0 -2.5175,-0.889806 -0.8464,-0.911508 -0.8464,-2.60431 l 0,-7.964847 q 0,-0.802996 0.17362,-1.519181 0.17362,-0.716185 0.56427,-1.237047 0.39064,-0.542565 1.02002,-0.846401 0.65108,-0.325538 1.60599,-0.325538 z"
         style="font-style:normal;font-variant:normal;font-weight:300;font-stretch:normal;line-height:99.00000095%;font-family:'PF Din Text Comp Pro';-inkscape-font-specification:'PF Din Text Comp Pro Light';fill:#023f87;fill-opacity:0.94117647"
         id="path4233"
         inkscape:connector-curvature="0" /><path
         d="m 138.70182,80.719544 0,-15.104997 1.30215,0 0,6.706098 1.21535,0 q 0.34724,0 0.71618,-0.06511 0.39065,-0.08681 0.73789,-0.325539 0.36895,-0.260431 0.65108,-0.694482 0.30384,-0.455755 0.47746,-1.193642 l 1.06342,-4.427327 1.21535,0 -0.97662,4.383922 q -0.26043,1.106831 -0.75959,1.866422 -0.47746,0.75959 -1.19364,0.998318 0.93321,0.260431 1.38896,1.041724 0.47746,0.781293 0.71619,1.909827 l 1.08513,4.904784 -1.34556,0 -1.02002,-4.731163 q -0.17362,-0.75959 -0.45576,-1.215345 -0.26043,-0.477456 -0.60767,-0.737887 -0.32554,-0.260431 -0.73789,-0.347242 -0.39064,-0.08681 -0.80299,-0.08681 l -1.36727,0 0,7.118447 -1.30215,0 z"
         style="font-style:normal;font-variant:normal;font-weight:300;font-stretch:normal;line-height:99.00000095%;font-family:'PF Din Text Comp Pro';-inkscape-font-specification:'PF Din Text Comp Pro Light';fill:#023f87;fill-opacity:0.94117647"
         id="path4235"
         inkscape:connector-curvature="0" /><path
         d="m 154.41585,76.9867 q 0,1.909827 -0.8681,2.908146 -0.84641,0.976616 -2.58261,0.976616 -1.73621,0 -2.58261,-0.933211 -0.8247,-0.933211 -0.8247,-2.60431 l 0,-7.943145 q 0,-0.802995 0.17362,-1.51918 0.17362,-0.716186 0.56427,-1.237048 0.41235,-0.542564 1.06343,-0.8464 0.67278,-0.303836 1.62769,-0.303836 0.97662,0 1.62769,0.282133 0.67278,0.260431 1.06343,0.781293 0.39065,0.499159 0.56427,1.215345 0.17362,0.694482 0.17362,1.562586 l 0,7.661011 z m -1.34556,-7.856335 q 0,-0.477457 -0.10851,-0.911508 -0.10852,-0.434052 -0.34725,-0.75959 -0.23872,-0.347242 -0.65107,-0.542565 -0.39065,-0.217026 -0.97662,-0.217026 -0.62937,0 -1.04172,0.282134 -0.41235,0.260431 -0.65108,0.67278 -0.23873,0.412349 -0.34724,0.911508 -0.0868,0.477457 -0.0868,0.911509 l 0,7.878037 q 0,0.434051 0.10851,0.8464 0.13022,0.412349 0.36894,0.737888 0.26044,0.325539 0.65108,0.520862 0.41235,0.195323 0.97662,0.195323 1.15023,0 1.62769,-0.737888 0.47746,-0.737887 0.47746,-1.779611 l 0,-8.008253 z"
         style="font-style:normal;font-variant:normal;font-weight:300;font-stretch:normal;line-height:99.00000095%;font-family:'PF Din Text Comp Pro';-inkscape-font-specification:'PF Din Text Comp Pro Light';fill:#023f87;fill-opacity:0.94117647"
         id="path4237"
         inkscape:connector-curvature="0" /><path
         d="m 158.23991,62.684699 q 0.0868,0.564267 0.52086,1.041724 0.45576,0.477456 1.10684,0.477456 0.69448,0 1.12853,-0.455754 0.45575,-0.455754 0.52086,-1.063426 l 1.08513,0 q -0.0434,0.412349 -0.21703,0.868103 -0.17362,0.434051 -0.52086,0.824698 -0.32554,0.368944 -0.8247,0.607672 -0.49915,0.238729 -1.17193,0.238729 -0.71619,0 -1.23705,-0.238729 -0.49916,-0.238728 -0.8247,-0.607672 -0.32554,-0.390647 -0.49916,-0.824698 -0.15192,-0.455754 -0.17362,-0.868103 l 1.10683,0 z m 3.94987,6.163533 -4.44903,11.871312 -1.23704,0 0,-15.104997 1.30215,0 0,11.893015 0.0868,0.0217 4.40562,-11.914717 1.28046,0 0,15.104997 -1.32386,0 0,-11.871312 -0.0651,0 z"
         style="font-style:normal;font-variant:normal;font-weight:300;font-stretch:normal;line-height:99.00000095%;font-family:'PF Din Text Comp Pro';-inkscape-font-specification:'PF Din Text Comp Pro Light';fill:#023f87;fill-opacity:0.94117647"
         id="path4239"
         inkscape:connector-curvature="0" /><path
         d="m 57.949909,102.2051 0,-13.846247 -3.971573,0 0,13.846247 -1.323857,0 0,-15.104997 6.64099,0 0,15.104997 -1.34556,0 z"
         style="font-style:normal;font-variant:normal;font-weight:300;font-stretch:normal;line-height:99.00000095%;font-family:'PF Din Text Comp Pro';-inkscape-font-specification:'PF Din Text Comp Pro Light';fill:#023f87;fill-opacity:0.94117647"
         id="path4241"
         inkscape:connector-curvature="0" /><path
         d="m 64.572587,87.100103 q 1.128534,0 1.866422,0.303836 0.75959,0.303836 1.171939,0.889806 0.434052,0.564267 0.607672,1.388965 0.173621,0.802996 0.173621,1.801314 0,0.954914 -0.173621,1.779612 -0.17362,0.824698 -0.607672,1.43237 -0.434051,0.58597 -1.215344,0.933211 -0.759591,0.325539 -1.93153,0.325539 l -1.584289,0 0,6.250344 -1.323857,0 0,-15.104997 3.016659,0 z m -1.692802,7.617606 1.519181,0 q 0.824698,0 1.34556,-0.217026 0.520862,-0.238728 0.824698,-0.651077 0.303836,-0.434052 0.412349,-1.020022 0.108513,-0.607672 0.108513,-1.323857 0,-0.67278 -0.108513,-1.25875 -0.08681,-0.585969 -0.390646,-0.998319 -0.282134,-0.434051 -0.802996,-0.67278 -0.520862,-0.260431 -1.34556,-0.260431 l -1.562586,0 0,6.402262 z"
         style="font-style:normal;font-variant:normal;font-weight:300;font-stretch:normal;line-height:99.00000095%;font-family:'PF Din Text Comp Pro';-inkscape-font-specification:'PF Din Text Comp Pro Light';fill:#023f87;fill-opacity:0.94117647"
         id="path4243"
         inkscape:connector-curvature="0" /><path
         d="m 70.075886,102.2051 0,-15.104997 6.315452,0 0,1.237047 -4.991594,0 0,5.534158 4.362219,0 0,1.237047 -4.362219,0 0,5.881395 4.991594,0 0,1.21535 -6.315452,0 z"
         style="font-style:normal;font-variant:normal;font-weight:300;font-stretch:normal;line-height:99.00000095%;font-family:'PF Din Text Comp Pro';-inkscape-font-specification:'PF Din Text Comp Pro Light';fill:#023f87;fill-opacity:0.94117647"
         id="path4245"
         inkscape:connector-curvature="0" /><path
         d="m 86.121215,90.789542 q -0.108513,0.260431 -0.303836,0.781293 -0.195323,0.499159 -0.412349,1.063426 -0.195323,0.564267 -0.412349,1.085129 -0.195323,0.49916 -0.282134,0.759591 -0.0217,0.06511 -0.151918,0.390646 -0.108513,0.303836 -0.282133,0.737888 -0.173621,0.434051 -0.390647,0.933211 -0.195323,0.499159 -0.368944,0.933211 -0.17362,0.434051 -0.303836,0.75959 -0.130215,0.303836 -0.151918,0.368944 l -0.737888,0 q -0.108512,-0.282134 -0.347241,-0.846401 -0.217026,-0.564267 -0.477457,-1.193642 -0.238728,-0.629374 -0.477456,-1.193642 -0.217026,-0.564267 -0.325539,-0.8464 l -1.388965,-3.689439 -0.08681,0 0,11.372153 -1.323857,0 0,-15.104997 1.34556,0 q 0.130215,0.325539 0.390646,0.998319 0.260431,0.67278 0.542565,1.43237 0.282133,0.737888 0.542564,1.410668 0.260431,0.67278 0.368944,0.998319 l 1.584289,4.2103 0.06511,0 q 0.108512,-0.303836 0.325538,-0.889805 0.217026,-0.58597 0.455754,-1.237048 0.260431,-0.651077 0.477457,-1.237047 0.238729,-0.607672 0.347242,-0.911508 0.0217,-0.06511 0.151918,-0.434052 0.151918,-0.368944 0.347241,-0.868103 0.195323,-0.499159 0.412349,-1.085129 0.238728,-0.58597 0.412349,-1.085129 0.195323,-0.49916 0.325539,-0.846401 0.151918,-0.368944 0.17362,-0.455754 l 1.367263,0 0,15.104997 -1.323857,0 0,-11.415558 -0.08681,0 z"
         style="font-style:normal;font-variant:normal;font-weight:300;font-stretch:normal;line-height:99.00000095%;font-family:'PF Din Text Comp Pro';-inkscape-font-specification:'PF Din Text Comp Pro Light';fill:#023f87;fill-opacity:0.94117647"
         id="path4247"
         inkscape:connector-curvature="0" /><path
         d="m 95.471298,90.333788 -4.449029,11.871312 -1.237047,0 0,-15.104997 1.302155,0 0,11.893015 0.08681,0.0217 4.405624,-11.914717 1.280453,0 0,15.104999 -1.323858,0 0,-11.871314 -0.06511,0 z"
         style="font-style:normal;font-variant:normal;font-weight:300;font-stretch:normal;line-height:99.00000095%;font-family:'PF Din Text Comp Pro';-inkscape-font-specification:'PF Din Text Comp Pro Light';fill:#023f87;fill-opacity:0.94117647"
         id="path4249"
         inkscape:connector-curvature="0" /><path
         d="m 104.75424,90.333788 -4.44903,11.871312 -1.237048,0 0,-15.104997 1.302158,0 0,11.893015 0.0868,0.0217 4.40562,-11.914717 1.28045,0 0,15.104999 -1.32385,0 0,-11.871314 -0.0651,0 z"
         style="font-style:normal;font-variant:normal;font-weight:300;font-stretch:normal;line-height:99.00000095%;font-family:'PF Din Text Comp Pro';-inkscape-font-specification:'PF Din Text Comp Pro Light';fill:#023f87;fill-opacity:0.94117647"
         id="path4251"
         inkscape:connector-curvature="0" /><path
         d="m 115.39562,87.100103 q 1.12854,0 1.86643,0.303836 0.75959,0.303836 1.17194,0.889806 0.43405,0.564267 0.60767,1.388965 0.17362,0.802996 0.17362,1.801314 0,0.954914 -0.17362,1.779612 -0.17362,0.824698 -0.60767,1.43237 -0.43406,0.58597 -1.21535,0.933211 -0.75959,0.325539 -1.93153,0.325539 l -1.58429,0 0,6.250344 -1.32385,0 0,-15.104997 3.01665,0 z m -1.6928,7.617606 1.51918,0 q 0.8247,0 1.34556,-0.217026 0.52087,-0.238728 0.8247,-0.651077 0.30384,-0.434052 0.41235,-1.020022 0.10851,-0.607672 0.10851,-1.323857 0,-0.67278 -0.10851,-1.25875 -0.0868,-0.585969 -0.39065,-0.998319 -0.28213,-0.434051 -0.80299,-0.67278 -0.52086,-0.260431 -1.34556,-0.260431 l -1.56259,0 0,6.402262 z"
         style="font-style:normal;font-variant:normal;font-weight:300;font-stretch:normal;line-height:99.00000095%;font-family:'PF Din Text Comp Pro';-inkscape-font-specification:'PF Din Text Comp Pro Light';fill:#023f87;fill-opacity:0.94117647"
         id="path4253"
         inkscape:connector-curvature="0" /><path
         d="m 127.62672,98.472256 q 0,1.909824 -0.8681,2.908144 -0.8464,0.97662 -2.58261,0.97662 -1.7362,0 -2.5826,-0.93321 -0.8247,-0.93321 -0.8247,-2.604313 l 0,-7.943145 q 0,-0.802995 0.17362,-1.519181 0.17362,-0.716185 0.56427,-1.237047 0.41235,-0.542564 1.06342,-0.8464 0.67278,-0.303837 1.6277,-0.303837 0.97661,0 1.62769,0.282134 0.67278,0.260431 1.06343,0.781293 0.39064,0.499159 0.56426,1.215344 0.17362,0.694483 0.17362,1.562586 l 0,7.661012 z m -1.34556,-7.856335 q 0,-0.477457 -0.10851,-0.911508 -0.10851,-0.434052 -0.34724,-0.759591 -0.23873,-0.347241 -0.65108,-0.542564 -0.39064,-0.217026 -0.97661,-0.217026 -0.62938,0 -1.04173,0.282134 -0.41235,0.260431 -0.65107,0.67278 -0.23873,0.412349 -0.34725,0.911508 -0.0868,0.477457 -0.0868,0.911508 l 0,7.878037 q 0,0.434052 0.10852,0.846401 0.13021,0.41235 0.36894,0.73789 0.26043,0.32554 0.65108,0.52086 0.41235,0.19532 0.97661,0.19532 1.15024,0 1.6277,-0.73788 0.47745,-0.737892 0.47745,-1.779616 l 0,-8.008253 z"
         style="font-style:normal;font-variant:normal;font-weight:300;font-stretch:normal;line-height:99.00000095%;font-family:'PF Din Text Comp Pro';-inkscape-font-specification:'PF Din Text Comp Pro Light';fill:#023f87;fill-opacity:0.94117647"
         id="path4255"
         inkscape:connector-curvature="0" /><path
         d="m 132.99167,86.969887 q 1.58429,0 2.45239,0.889806 0.86811,0.868104 0.86811,2.452392 l -1.34556,0.260431 q 0.0217,-1.171939 -0.49916,-1.757909 -0.52087,-0.607672 -1.49748,-0.607672 -0.56427,0 -0.95491,0.217025 -0.36895,0.217026 -0.60768,0.58597 -0.23873,0.347241 -0.34724,0.802996 -0.10851,0.455754 -0.10851,0.933211 l 0,8.051657 q 0,0.434052 0.10851,0.868104 0.10851,0.412352 0.34724,0.737892 0.23873,0.32553 0.60768,0.52086 0.39064,0.19532 0.95491,0.19532 0.8898,0 1.43237,-0.54256 0.54256,-0.56427 0.56427,-1.823021 l 1.36726,0.238729 q -0.0434,1.671102 -0.95491,2.517502 -0.88981,0.8464 -2.38729,0.8464 -1.64939,0 -2.5175,-0.88981 -0.8464,-0.91151 -0.8464,-2.604308 l 0,-7.964847 q 0,-0.802996 0.17362,-1.519181 0.17362,-0.716185 0.56427,-1.237047 0.39065,-0.542565 1.02002,-0.846401 0.65108,-0.325539 1.60599,-0.325539 z"
         style="font-style:normal;font-variant:normal;font-weight:300;font-stretch:normal;line-height:99.00000095%;font-family:'PF Din Text Comp Pro';-inkscape-font-specification:'PF Din Text Comp Pro Light';fill:#023f87;fill-opacity:0.94117647"
         id="path4257"
         inkscape:connector-curvature="0" /><path
         d="m 141.29969,86.969887 q 1.58428,0 2.45239,0.889806 0.8681,0.868104 0.8681,2.452392 l -1.34556,0.260431 q 0.0217,-1.171939 -0.49916,-1.757909 -0.52086,-0.607672 -1.49748,-0.607672 -0.56426,0 -0.95491,0.217025 -0.36894,0.217026 -0.60767,0.58597 -0.23873,0.347241 -0.34724,0.802996 -0.10852,0.455754 -0.10852,0.933211 l 0,8.051657 q 0,0.434052 0.10852,0.868104 0.10851,0.412352 0.34724,0.737892 0.23873,0.32553 0.60767,0.52086 0.39065,0.19532 0.95491,0.19532 0.88981,0 1.43237,-0.54256 0.54257,-0.56427 0.56427,-1.823021 l 1.36726,0.238729 q -0.0434,1.671102 -0.95491,2.517502 -0.88981,0.8464 -2.38728,0.8464 -1.6494,0 -2.5175,-0.88981 -0.8464,-0.91151 -0.8464,-2.604308 l 0,-7.964847 q 0,-0.802996 0.17362,-1.519181 0.17362,-0.716185 0.56426,-1.237047 0.39065,-0.542565 1.02002,-0.846401 0.65108,-0.325539 1.606,-0.325539 z"
         style="font-style:normal;font-variant:normal;font-weight:300;font-stretch:normal;line-height:99.00000095%;font-family:'PF Din Text Comp Pro';-inkscape-font-specification:'PF Din Text Comp Pro Light';fill:#023f87;fill-opacity:0.94117647"
         id="path4259"
         inkscape:connector-curvature="0" /><path
         d="m 152.01669,90.333788 -4.44903,11.871312 -1.23704,0 0,-15.104997 1.30215,0 0,11.893015 0.0868,0.0217 4.40563,-11.914717 1.28045,0 0,15.104999 -1.32386,0 0,-11.871314 -0.0651,0 z"
         style="font-style:normal;font-variant:normal;font-weight:300;font-stretch:normal;line-height:99.00000095%;font-family:'PF Din Text Comp Pro';-inkscape-font-specification:'PF Din Text Comp Pro Light';fill:#023f87;fill-opacity:0.94117647"
         id="path4261"
         inkscape:connector-curvature="0" /><path
         d="m 161.29964,90.333788 -4.44903,11.871312 -1.23705,0 0,-15.104997 1.30216,0 0,11.893015 0.0868,0.0217 4.40562,-11.914717 1.28045,0 0,15.104999 -1.32386,0 0,-11.871314 -0.0651,0 z"
         style="font-style:normal;font-variant:normal;font-weight:300;font-stretch:normal;line-height:99.00000095%;font-family:'PF Din Text Comp Pro';-inkscape-font-specification:'PF Din Text Comp Pro Light';fill:#023f87;fill-opacity:0.94117647"
         id="path4263"
         inkscape:connector-curvature="0" /></g></g></svg>