<?xml version="1.0" encoding="utf-8"?>
<!-- Generator: Adobe Illustrator 16.0.2, SVG Export Plug-In . SVG Version: 6.00 Build 0)  -->
<!DOCTYPE svg PUBLIC "-//W3C//DTD SVG 1.1//EN" "http://www.w3.org/Graphics/SVG/1.1/DTD/svg11.dtd">
<svg version="1.1" id="Слой_1" xmlns="http://www.w3.org/2000/svg" xmlns:xlink="http://www.w3.org/1999/xlink" x="0px" y="0px"
	 width="850.394px" height="265.607px" viewBox="-274.533 -85.746 850.394 265.607"
	 enable-background="new -274.533 -85.746 850.394 265.607" xml:space="preserve">
<g id="__x0023_Layer_x0020_1">
	<g id="_1934083546960">
		<path fill="#023F87" d="M-209.307-26.504l-20.498-57.535H-269v14.563h10.069v63.649H-269V9.276h34.162V-5.826h-9.529v-63.649
			l28.228,78.751h8.45l28.767-78.751v63.649h-10.068V9.276h42.252V-5.826h-10.069v-63.649h10.069v-14.563h-41.533L-209.307-26.504z
			 M-108.802-24.706L-108.802-24.706v-44.769h10.069v-14.563h-42.253v14.563h10.069v63.649h-10.069V9.276h32.724l28.766-58.612
			v43.51h-10.068V9.276h42.431V-5.826h-10.067v-63.649h10.067v-14.563h-32.901L-108.802-24.706z M2.312-84.039L2.312-84.039h-44.409
			v14.563h10.067v63.649h-10.067V9.276H0.333V-5.826H-9.735v-19.418H2.312c24.272,0,35.6-9.349,35.6-29.847
			C37.911-75.408,26.584-84.039,2.312-84.039z M-4.88-40.529L-4.88-40.529h-4.854v-28.946h4.854
			c12.944,0,18.878,3.775,18.878,14.383C13.998-44.484,8.064-40.529-4.88-40.529z"/>
		<path fill="#023F87" d="M-222.433,78.136h-14.204V57.099h25.171v14.384h16.901V42.536H-269v14.563h10.069v63.649H-269v15.102
			h46.388c21.214,0,32.182-11.685,32.182-28.946C-190.43,89.462-201.397,78.136-222.433,78.136z M-230.523,120.749L-230.523,120.749
			h-6.113V93.238h6.113c10.068,0,16.182,4.676,16.182,13.666C-214.342,115.715-219.556,120.749-230.523,120.749z M-116.353,57.099
			L-116.353,57.099h11.146V42.536h-62.208v14.563h12.585l-20.676,63.649h-10.248v15.102h40.273v-15.102h-10.248l5.034-17.621h26.969
			l5.035,17.621h-9.889v15.102h41.353v-15.102h-8.451L-116.353,57.099z M-147.279,91.081L-147.279,91.081l10.25-34.521
			l10.067,34.521H-147.279z M-33.108,34.447L-33.108,34.447c15.283,0,22.833-9.528,22.833-21.216H-23.58
			c-0.538,6.294-4.314,9.349-9.528,9.349c-5.394,0-9.169-3.054-9.889-9.349h-13.125C-56.122,24.919-48.391,34.447-33.108,34.447z
			 M-49.83,101.869L-49.83,101.869v-44.77h10.069V42.536h-42.251v14.563h10.068v63.649h-10.068v15.102h32.723l28.946-58.612v43.511
			h-10.068v15.102h42.252v-15.102H1.771V57.099h10.07V42.536h-32.724L-49.83,101.869z M49.238,57.099L49.238,57.099h10.068V42.536
			H17.054v14.563h10.07v63.649h-10.07v15.102h42.252v-15.102H49.238V57.099z M73.332,83.89L73.332,83.89l25.529-26.791h7.732V42.536
			H68.116v14.563h10.069L49.957,86.408l26.071,34.341h-9.889v15.102h46.208v-15.102h-10.069L73.332,83.89z M186.602,57.099
			L186.602,57.099h11.146V42.536H135.54v14.563h12.586l-20.677,63.649h-10.068v15.102h40.272v-15.102h-10.426l5.033-17.621h26.97
			l5.035,17.621h-9.888v15.102h41.529v-15.102h-8.628L186.602,57.099z M155.677,91.081L155.677,91.081l10.247-34.521l10.067,34.521
			H155.677z M227.775,57.099L227.775,57.099h10.066V92.7c0,24.093-4.314,28.408-10.788,28.408c-3.774,0-5.751-0.359-7.192-1.08
			v16.543c2.878,0.54,5.936,1.257,10.429,1.257c15.823,0,25.711-11.147,25.711-48.544V57.099h24.273v63.649h-10.069v15.102h42.254
			v-15.102h-10.07V57.099h10.07V42.536h-84.684V57.099z M408.288,120.749L408.288,120.749l-20.854-63.649h11.326V42.536h-62.39
			v14.563h12.765l-20.679,63.649h-10.246v15.102h40.276v-15.102h-10.249l4.853-17.621h27.151l5.033,17.621h-9.891v15.102h41.354
			v-15.102H408.288z M356.687,91.081L356.687,91.081l10.25-34.521l9.89,34.521H356.687z"/>
	</g>
	<path fill="#4CA7E5" d="M512.567,67.169c-1.076,5.035,1.084,4.314-3.955,8.272c-2.694,1.978-4.852,5.752-7.729,7.191
		c-1.437,0.539-15.641,6.472-13.666,1.618c1.801-4.137,28.768-16.901,26.612-20.678C513.468,64.833,513.109,65.91,512.567,67.169z
		 M397.142,162.101L397.142,162.101c-3.958,1.257-25.354,2.157-13.482,8.629c7.191,3.958,13.843,7.911,22.114,7.374
		c12.762-0.901,25.351-3.778,36.856-9.71c4.853-2.517,10.967-2.875,15.102-6.833c2.698-2.517,6.115-8.629,8.092-12.045
		c1.979-3.236-0.182-7.191,2.517-10.43c2.697-3.058-3.057-7.013-0.897-9.89c1.077-1.436,13.665-7.73,13.483-4.853
		c-0.359,7.729,11.149-8.63,12.945-10.069c4.316-3.597,7.55-5.215,11.325-9.528c1.263-1.26,6.295-5.035,8.093-4.316
		c-1.08,1.08,6.111-0.18,7.372-1.257c3.058-2.52,5.932-5.753,8.091-8.99c1.078-1.619,5.392-5.573,4.854-7.372
		c-1.438-4.137,0.179-5.034,3.415-9.169c0.901-1.079,2.878-4.137,4.136-4.676c1.979-0.717,3.058,1.979,5.217,0.719
		c2.337-1.257,6.829-7.909,7.013-10.604c0.718-18.522-15.284-2.521-15.284-2.699c-1.798-4.676,5.752-16.001,8.451-19.598
		c8.089-10.967,4.313,7.551,5.391,10.249c1.98-0.178,5.576-0.718,7.191-2.156c-0.717,0.718-1.436-6.833-1.794-7.192
		c-2.161-1.081,3.774-8.99,4.493-10.07c3.596-5.394,5.572-10.249,2.515-16.361c-0.537-1.08-1.976-8.991-1.615-9.888
		c1.437-3.417-0.72-6.833-0.36-10.25c0.54-3.954,4.675-3.595,3.595-8.45c-1.798-7.551,5.035-13.663,1.438-21.396
		c-0.717-1.437,0-9.708,0.36-11.327c1.079-3.417,2.339-6.833,0.9-10.067c-2.156-4.675,3.416-7.191,1.076-11.868
		c-5.395-10.249-10.967-2.698-15.999,3.956c-1.259,1.798-5.575,6.833-6.115,8.81c-1.256,7.372,2.16,14.742,1.081,22.114
		c-0.722,5.035-5.394,7.191-6.295,11.867c-0.718,4.314,0.361,9.169-0.897,13.125c-1.259,4.855-4.677,8.99-6.833,13.486
		c-2.694,5.573-2.875,12.586-5.034,18.518c-2.157,5.394-2.877,13.664-7.013,17.801c-4.135,4.134-9.17,6.833-13.305,10.967
		c-4.676,4.853-3.775,7.012-4.495,12.586c-0.539,4.134-7.012,7.191-10.067,9.169c-4.854,3.236-7.013,6.292-10.608,10.608
		c-6.833,8.09-0.179,1.257,1.261,7.191c0.178,0.898-5.397,9.708-6.115,10.247c-5.033,3.775-7.192,9.71-12.766,13.486
		c-5.035,3.416-10.967,5.214-14.564,10.607c-3.232,5.035-5.034,10.609-7.729,15.823c-2.338,4.672-5.934,8.448-9.349,12.403
		c-2.52,2.878-2.878,3.057-7.193,2.878c-2.877,0.718-3.955,3.955-7.192,3.955C420.336,158.865,398.043,161.741,397.142,162.101
		C392.467,163.538,397.142,162.101,397.142,162.101z"/>
	<g id="_1934083545584">
		<g>
			<polygon fill="#023F87" points="92.747,-47 92.747,-48.798 94.366,-48.798 94.366,-53.115 88.614,-53.115 88.614,-48.798 
				90.231,-48.798 90.231,-47 84.839,-47 84.839,-48.798 86.456,-48.798 86.456,-58.688 84.839,-58.688 84.839,-60.486 
				90.231,-60.486 90.231,-58.688 88.614,-58.688 88.614,-55.092 94.366,-55.092 94.366,-58.688 92.747,-58.688 92.747,-60.486 
				97.962,-60.486 97.962,-58.688 96.523,-58.688 96.523,-48.798 97.962,-48.798 97.962,-47 			"/>
			<path fill="#023F87" d="M108.03-47v-1.798h1.438l-0.898-2.336h-5.394l-0.899,2.336h1.438V-47h-5.213v-1.798h1.438l4.315-9.89
				h-1.438v-1.798h4.136l4.675,11.688h1.617V-47H108.03z M105.874-57.967L105.874-57.967l-2.158,5.034h4.315L105.874-57.967z"/>
			<polygon fill="#023F87" points="124.212,-58.688 118.998,-47 116.3,-47 116.3,-48.798 117.741,-48.798 118.46,-50.236 
				114.685,-58.688 113.424,-58.688 113.424,-60.486 118.28,-60.486 118.28,-58.688 117.021,-58.688 119.538,-52.573 
				121.875,-58.688 120.617,-58.688 120.617,-60.486 125.651,-60.486 125.651,-58.688 			"/>
			<path fill="#023F87" d="M132.843-47v-1.798h1.618v-3.416h-2.878c-2.335,0-4.134-1.619-4.134-3.776v-2.698h-1.619v-1.798h5.214
				v1.798h-1.438v2.519c0,1.257,1.257,2.158,2.698,2.158h2.157v-4.676h-1.618v-1.798h5.212v1.798h-1.437v9.89h1.437V-47H132.843z"/>
			<polygon fill="#023F87" points="146.688,-47 146.688,-48.798 148.306,-48.798 148.306,-53.115 142.551,-53.115 142.551,-48.798 
				144.169,-48.798 144.169,-47 138.775,-47 138.775,-48.798 140.394,-48.798 140.394,-58.688 138.775,-58.688 138.775,-60.486 
				144.169,-60.486 144.169,-58.688 142.551,-58.688 142.551,-55.092 148.306,-55.092 148.306,-58.688 146.688,-58.688 
				146.688,-60.486 151.901,-60.486 151.901,-58.688 150.462,-58.688 150.462,-48.798 151.901,-48.798 151.901,-47 			"/>
			<path fill="#023F87" d="M159.452-46.82c-3.775,0-7.013-3.058-7.013-7.013c0-3.776,3.237-6.833,7.013-6.833
				c3.958,0,7.012,3.057,7.012,6.833C166.464-49.877,163.41-46.82,159.452-46.82z M159.452-58.509L159.452-58.509
				c-2.517,0-4.677,2.161-4.677,4.676c0,2.698,2.16,4.855,4.677,4.855c2.696,0,4.855-2.157,4.855-4.855
				C164.308-56.348,162.148-58.509,159.452-58.509z"/>
			<polygon fill="#023F87" points="167.006,-51.675 167.006,-53.294 171.859,-53.294 171.859,-51.675 			"/>
			<polygon fill="#023F87" points="180.488,-47 180.488,-48.798 181.929,-48.798 181.929,-58.688 176.352,-58.688 176.352,-48.798 
				177.79,-48.798 177.79,-47 172.576,-47 172.576,-48.798 174.016,-48.798 174.016,-58.688 172.576,-58.688 172.576,-60.486 
				185.703,-60.486 185.703,-58.688 184.265,-58.688 184.265,-48.798 185.703,-48.798 185.703,-47 			"/>
			<path fill="#023F87" d="M193.255-46.82c-3.775,0-7.013-3.058-7.013-7.013c0-3.776,3.237-6.833,7.013-6.833
				c3.955,0,7.013,3.057,7.013,6.833C200.268-49.877,197.21-46.82,193.255-46.82z M193.255-58.509L193.255-58.509
				c-2.52,0-4.677,2.161-4.677,4.676c0,2.698,2.157,4.855,4.677,4.855c2.697,0,4.853-2.157,4.853-4.855
				C198.107-56.348,195.952-58.509,193.255-58.509z"/>
			<polygon fill="#023F87" points="208.894,-47 208.894,-48.798 210.335,-48.798 210.335,-58.688 204.76,-58.688 204.76,-48.798 
				206.199,-48.798 206.199,-47 200.985,-47 200.985,-48.798 202.424,-48.798 202.424,-58.688 200.985,-58.688 200.985,-60.486 
				214.111,-60.486 214.111,-58.688 212.67,-58.688 212.67,-48.798 214.111,-48.798 214.111,-47 			"/>
			<polygon fill="#023F87" points="225.438,-58.688 220.223,-47 217.345,-47 217.345,-48.798 218.964,-48.798 219.504,-50.236 
				215.906,-58.688 214.471,-58.688 214.471,-60.486 219.504,-60.486 219.504,-58.688 218.246,-58.688 220.583,-52.573 
				223.099,-58.688 221.842,-58.688 221.842,-60.486 226.695,-60.486 226.695,-58.688 			"/>
			<polygon fill="#023F87" points="235.867,-47 235.867,-48.798 237.303,-48.798 234.065,-57.249 230.65,-48.798 232.092,-48.798 
				232.092,-47 226.695,-47 226.695,-48.798 228.313,-48.798 232.271,-58.688 231.008,-58.688 231.008,-60.486 235.146,-60.486 
				239.642,-48.798 241.258,-48.798 241.258,-47 			"/>
			<path fill="#023F87" d="M249.71-52.035h-1.26l-2.876,3.237h1.261V-47h-5.577v-1.798h1.622l2.875-3.237
				c-1.619-0.538-3.238-1.977-3.238-4.134c0-2.519,2.337-4.317,4.677-4.317h6.291v1.798h-1.618v9.89h1.618V-47h-5.394v-1.798h1.619
				V-52.035z M249.71-58.688L249.71-58.688h-2.517c-1.26,0-2.34,1.08-2.34,2.519c0,1.257,1.08,2.158,2.34,2.158h2.517V-58.688z"/>
			<path fill="#023F87" d="M257.981-48.798h1.614V-47h-5.391v-1.798h1.616v-9.89h-1.616v-1.798h5.754
				c2.515,0,4.675,1.798,4.675,4.317c0,2.516-2.16,4.134-4.316,4.134h-2.336V-48.798z M257.981-53.832L257.981-53.832h1.978
				c1.438,0,2.336-1.08,2.336-2.337c0-1.439-1.077-2.519-2.336-2.519h-1.978V-53.832z"/>
			<polygon fill="#023F87" points="273.263,-47 273.263,-48.798 274.701,-48.798 274.701,-53.115 269.129,-53.115 269.129,-48.798 
				270.564,-48.798 270.564,-47 265.352,-47 265.352,-48.798 266.967,-48.798 266.967,-58.688 265.352,-58.688 265.352,-60.486 
				270.564,-60.486 270.564,-58.688 269.129,-58.688 269.129,-55.092 274.701,-55.092 274.701,-58.688 273.263,-58.688 
				273.263,-60.486 278.477,-60.486 278.477,-58.688 277.037,-58.688 277.037,-48.798 278.477,-48.798 278.477,-47 			"/>
			<path fill="#023F87" d="M285.489-47h-6.293v-1.798h1.616v-9.89h-1.616v-1.798h5.213v1.798h-1.438v3.237h2.518
				c2.336,0,4.135,1.798,4.135,4.134C289.624-48.798,287.825-47,285.489-47z M282.972-53.653L282.972-53.653v4.855h2.156
				c1.262,0,2.338-1.08,2.338-2.52c0-1.256-1.076-2.336-2.338-2.336H282.972z M289.624-47L289.624-47v-1.798h1.438v-9.89h-1.438
				v-1.798h5.214v1.798h-1.436v9.89h1.436V-47H289.624z"/>
			<path fill="#023F87" d="M304.549-47v-1.798h1.615v-7.913L299.151-47h-1.975v-11.688h-1.621v-1.798h5.217v1.798h-1.621v8.092
				l7.013-9.89h3.597v1.798h-1.615v9.89h1.615V-47H304.549z M306.703-61.742L306.703-61.742c-0.539,0.359-1.257,0.718-1.975,0.718
				c-0.722,0-1.98-0.539-2.697-0.539c-0.54,0-1.438,0.18-1.979,0.539l-0.9-1.438c0.721-0.36,1.801-0.718,2.699-0.718
				c0.538,0,1.439,0.538,2.339,0.538c0.539,0,1.076-0.359,1.437-0.538L306.703-61.742z"/>
			<polygon fill="#023F87" points="330.977,-47 330.977,-48.798 332.054,-48.798 327.38,-53.294 327.38,-48.798 328.999,-48.798 
				328.999,-47 323.604,-47 323.604,-48.798 325.224,-48.798 325.224,-53.294 320.547,-48.798 321.628,-48.798 321.628,-47 
				316.414,-47 316.414,-48.798 317.673,-48.798 323.066,-53.832 317.673,-58.688 316.592,-58.688 316.592,-60.486 321.808,-60.486 
				321.808,-58.688 320.728,-58.688 325.224,-54.551 325.224,-58.688 323.604,-58.688 323.604,-60.486 328.999,-60.486 
				328.999,-58.688 327.38,-58.688 327.38,-54.551 331.873,-58.688 330.798,-58.688 330.798,-60.486 336.012,-60.486 
				336.012,-58.688 334.932,-58.688 329.539,-53.832 334.932,-48.798 336.371,-48.798 336.371,-47 			"/>
			<polygon fill="#023F87" points="347.338,-58.688 342.123,-47 339.427,-47 339.427,-48.798 340.867,-48.798 341.585,-50.236 
				337.81,-58.688 336.549,-58.688 336.549,-60.486 341.405,-60.486 341.405,-58.688 340.146,-58.688 342.661,-52.573 
				345.181,-58.688 343.925,-58.688 343.925,-60.486 348.775,-60.486 348.775,-58.688 			"/>
			<path fill="#023F87" d="M352.911-48.798h1.618V-47h-5.394v-1.798h1.618v-9.89h-1.618v-1.798h5.755
				c2.517,0,4.674,1.798,4.674,4.317c0,2.516-2.157,4.134-4.313,4.134h-2.34V-48.798z M352.911-53.832L352.911-53.832h1.979
				c1.437,0,2.334-1.08,2.334-2.337c0-1.439-1.076-2.519-2.334-2.519h-1.979V-53.832z"/>
			<polygon fill="#023F87" points="368.192,-47 368.192,-48.798 369.634,-48.798 369.634,-53.115 364.057,-53.115 364.057,-48.798 
				365.496,-48.798 365.496,-47 360.282,-47 360.282,-48.798 361.9,-48.798 361.9,-58.688 360.282,-58.688 360.282,-60.486 
				365.496,-60.486 365.496,-58.688 364.057,-58.688 364.057,-55.092 369.634,-55.092 369.634,-58.688 368.192,-58.688 
				368.192,-60.486 373.41,-60.486 373.41,-58.688 371.971,-58.688 371.971,-48.798 373.41,-48.798 373.41,-47 			"/>
			<path fill="#023F87" d="M383.296-47v-1.798h1.619l-0.897-2.336h-5.396l-1.076,2.336h1.618V-47h-5.216v-1.798h1.438l4.316-9.89
				h-1.619v-1.798h4.313l4.677,11.688h1.618V-47H383.296z M381.32-57.967L381.32-57.967l-2.157,5.034h4.313L381.32-57.967z"/>
			<polygon fill="#023F87" points="397.86,-47 397.86,-48.798 399.299,-48.798 396.062,-57.249 392.646,-48.798 393.905,-48.798 
				393.905,-47 388.69,-47 388.69,-48.798 390.309,-48.798 394.264,-58.688 393.004,-58.688 393.004,-60.486 396.959,-60.486 
				401.639,-48.798 403.254,-48.798 403.254,-47 			"/>
		</g>
		<g>
			<polygon fill="#4CA7E5" points="94.906,-33.696 94.906,-29.02 92.569,-29.02 94.366,-21.649 97.783,-33.696 102.458,-33.696 
				106.053,-21.649 107.672,-29.02 105.514,-29.02 105.514,-33.696 115.402,-33.696 115.402,-29.02 113.066,-29.02 108.571,-11.941 
				103.536,-11.941 100.12,-23.626 96.705,-11.941 91.849,-11.941 87.175,-29.02 84.839,-29.02 84.839,-33.696 			"/>
			<path fill="#4CA7E5" d="M129.786-11.582c-6.292,0-11.687-5.031-11.687-11.326c0-6.112,5.395-11.147,11.687-11.147
				c6.293,0,11.508,5.035,11.508,11.147C141.293-16.613,136.079-11.582,129.786-11.582z M129.786-28.302L129.786-28.302
				c-3.235,0-5.574,2.336-5.574,5.394c0,3.237,2.338,5.752,5.574,5.752c3.058,0,5.394-2.515,5.394-5.752
				C135.18-25.966,132.843-28.302,129.786-28.302z"/>
			<path fill="#4CA7E5" d="M153.34-16.434h1.436v4.493h-9.707v-4.672h2.159V-29.02h-2.159v-4.676h10.248
				c5.036,0,8.812,3.417,8.812,7.552c0,3.236-1.802,5.573-4.315,6.474l2.877,3.058h1.797v4.672h-6.115l-5.031-7.371V-16.434z
				 M153.34-23.267L153.34-23.267h1.795c1.62,0,2.879-1.259,2.879-2.877c0-1.437-1.259-2.517-2.879-2.517h-1.795V-23.267z"/>
			<polygon fill="#4CA7E5" points="179.229,-33.696 179.229,-29.02 177.073,-29.02 177.073,-16.975 180.488,-16.975 
				180.488,-19.492 185.882,-19.492 185.882,-11.941 168.802,-11.941 168.802,-16.613 170.961,-16.613 170.961,-29.02 
				168.802,-29.02 168.802,-33.696 			"/>
			<path fill="#4CA7E5" d="M200.805-33.696c5.936,0,10.609,4.676,10.609,11.146c0,5.937-4.674,10.608-10.609,10.608h-11.146v-4.672
				h2.157V-29.02h-2.157v-4.676H200.805z M197.748-16.975L197.748-16.975h2.52c2.878,0,5.031-2.158,5.031-5.574
				c0-3.595-2.153-6.112-5.211-6.112h-2.34V-16.975z"/>
		</g>
		<g>
			<path fill="#4CA7E5" d="M235.506-11.582c-5.036,0-8.273-3.775-7.373-8.448c0.901-4.677,5.574-8.452,10.609-8.452
				c4.855,0,8.093,3.775,7.191,8.452C245.033-15.357,240.36-11.582,235.506-11.582z M238.021-25.424L238.021-25.424
				c-3.055,0-5.929,2.337-6.47,5.395c-0.543,3.054,1.438,5.393,4.496,5.393c3.054,0,5.932-2.339,6.47-5.393
				C243.06-23.087,241.078-25.424,238.021-25.424z"/>
			<path fill="#4CA7E5" d="M255.462-29.379l-0.179,1.257h2.159l-0.541,2.877h-2.337l-1.98,10.429h2.34l-0.539,2.875h-7.73
				l0.539-2.875h2.156l2.158-10.429h-2.337l0.539-2.877h2.156l0.359-1.619c0.542-2.517,3.596-4.314,7.013-4.314l-0.54,2.695
				C257.08-31.36,255.641-30.639,255.462-29.379z"/>
		</g>
		<g>
			<path fill="#4CA7E5" d="M278.477-33.696c4.138,0,7.191,2.52,7.191,5.753c0,1.799-1.438,3.958-2.874,4.496
				c2.153,0.719,3.775,2.875,3.775,5.215c0,3.596-3.237,6.291-6.654,6.291h-11.867v-4.672h2.157V-29.02h-2.157v-4.676H278.477z
				 M276.139-25.424L276.139-25.424h1.796c1.084,0,1.98-0.9,1.98-1.798c0-1.08-0.896-1.797-1.98-1.797h-1.796V-25.424z
				 M276.139-16.613L276.139-16.613h1.796c1.442,0,2.52-0.901,2.52-2.161c0-1.256-1.077-2.157-2.52-2.157h-1.796V-16.613z"/>
			<path fill="#4CA7E5" d="M304.007-33.696l6.653,17.083h2.157v4.672h-9.891v-4.134h1.98l-0.539-1.619h-5.935l-0.538,1.619h1.977
				v4.134h-9.888v-4.672h2.154l5.038-12.407h-1.801v-4.676H304.007z M301.311-26.684L301.311-26.684L301.311-26.684l-1.438,4.497
				h3.055L301.311-26.684z"/>
			<polygon fill="#4CA7E5" points="316.414,-11.941 316.414,-16.613 318.753,-16.613 318.753,-29.02 316.414,-29.02 
				316.414,-33.696 326.842,-33.696 326.842,-29.02 324.683,-29.02 324.683,-16.613 326.842,-16.613 326.842,-11.941 			"/>
			<polygon fill="#4CA7E5" points="343.562,-11.941 343.562,-16.613 344.822,-16.613 339.967,-20.93 339.967,-16.613 
				342.303,-16.613 342.303,-11.941 331.873,-11.941 331.873,-16.613 334.034,-16.613 334.034,-29.02 331.873,-29.02 
				331.873,-33.696 342.303,-33.696 342.303,-29.02 339.967,-29.02 339.967,-24.347 344.822,-29.02 343.562,-29.02 343.562,-33.696 
				353.629,-33.696 353.629,-29.02 352.552,-29.02 345.54,-22.908 352.552,-16.613 354.171,-16.613 354.171,-11.941 			"/>
			<path fill="#4CA7E5" d="M371.609-33.696l6.653,17.083h2.159v4.672h-9.89v-4.134h1.977l-0.538-1.619h-5.932l-0.36,1.619h1.796
				v4.134h-9.888v-4.672h2.337l5.034-12.407h-1.977v-4.676H371.609z M369.094-26.684L369.094-26.684h-0.181l-1.438,4.497h3.058
				L369.094-26.684z"/>
			<polygon fill="#4CA7E5" points="394.626,-33.696 394.626,-29.02 392.288,-29.02 392.288,-16.975 395.703,-16.975 
				395.703,-19.492 401.276,-19.492 401.276,-11.941 384.197,-11.941 384.197,-16.613 386.354,-16.613 386.354,-29.02 
				384.197,-29.02 384.197,-33.696 			"/>
		</g>
	</g>
</g>
</svg>
